<svg xmlns="http://www.w3.org/2000/svg" viewBox="0 0 400 400">
  <rect width="200" height="200" fill="#000"/>

  <!-- White 5 -->
  <path fill="#ffffff" d="
    M74 36
    H142
    L132 50
    H88
    L83 82
    C92 74 105 70 118 70
    C144 70 164 89 164 117
    C164 147 143 166 113 166
    C89 166 70 153 60 133
    L78 133
    C86 144 97 149 111 149
    C131 149 146 136 146 117
    C146 99 132 87 113 87
    C97 87 84 95 76 109
    L63 106
    Z"/>

  <!-- Orange bars -->
  <g fill="#F4A62A">
    <rect x="82" y="118" width="10" height="20" rx="2"/>
    <rect x="97" y="108" width="10" height="30" rx="2"/>
    <rect x="112" y="98" width="10" height="40" rx="2"/>
  </g>

  <!-- Orange baseline -->
  <path d="M72 138 H124" stroke="#F4A62A" stroke-width="5" stroke-linecap="round"/>
</svg>
